<svg width="33" height="32" viewBox="0 0 33 32" fill="none" xmlns="http://www.w3.org/2000/svg">
<g clip-path="url(#clip0_3926_4847)">
<rect x="0.5" width="32" height="32" fill="url(#paint0_radial_3926_4847)"/>
<g clip-path="url(#clip1_3926_4847)">
<path d="M21.0125 21.1905C21.0099 20.7876 21.1273 20.393 21.3499 20.0567C21.5724 19.7205 21.8901 19.4578 22.2625 19.3019C22.635 19.146 23.0454 19.104 23.4418 19.1812C23.8382 19.2583 24.2027 19.4512 24.489 19.7354C24.7754 20.0196 24.9707 20.3822 25.0502 20.7772C25.1297 21.1723 25.0898 21.582 24.9356 21.9544C24.7813 22.3268 24.5197 22.6451 24.1839 22.8689C23.848 23.0928 23.4531 23.2121 23.0493 23.2117C22.5116 23.2096 21.9964 22.9963 21.6152 22.618C21.234 22.2397 21.0175 21.7269 21.0125 21.1905Z" fill="url(#paint1_radial_3926_4847)"/>
<path d="M16.6585 17.8255V7.67212H19.5955V22.9915H16.7391V21.7152H16.7022C15.763 23.0924 14.244 23.1844 13.5726 23.1844C10.654 23.1844 8.77637 20.6678 8.77637 17.9584C8.77637 15.4139 10.7162 12.7509 13.6238 12.7509C14.0707 12.7519 14.5146 12.8231 14.9393 12.9621L14.9741 12.9737C15.0731 13.0057 15.168 13.0491 15.2569 13.1032C15.2645 13.1083 15.2721 13.1132 15.2797 13.1182C15.2985 13.1305 15.3171 13.1427 15.3361 13.1563C15.5515 13.3102 15.712 13.5286 15.7945 13.7797C15.8769 14.0308 15.8769 14.3017 15.7945 14.5528C15.7121 14.804 15.5515 15.0223 15.3362 15.1762C15.1209 15.3301 14.862 15.4115 14.5971 15.4085L14.2556 15.4051C12.8745 15.4051 11.7612 16.4327 11.7612 17.9577C11.7612 19.4828 12.8745 20.5206 14.246 20.5206C15.7596 20.5206 16.7076 19.3635 16.6585 17.8255Z" fill="url(#paint2_radial_3926_4847)"/>
</g>
</g>
<defs>
<radialGradient id="paint0_radial_3926_4847" cx="0" cy="0" r="1" gradientUnits="userSpaceOnUse" gradientTransform="translate(16.5) rotate(90) scale(32)">
<stop stop-color="#4E68F6"/>
<stop offset="1" stop-color="#0B2AD6"/>
</radialGradient>
<radialGradient id="paint1_radial_3926_4847" cx="0" cy="0" r="1" gradientUnits="userSpaceOnUse" gradientTransform="translate(18.0999 17.8666) rotate(-90) scale(10.4 10.9181)">
<stop stop-color="white"/>
<stop offset="1" stop-color="white" stop-opacity="0.8"/>
</radialGradient>
<radialGradient id="paint2_radial_3926_4847" cx="0" cy="0" r="1" gradientUnits="userSpaceOnUse" gradientTransform="translate(18.0999 17.8666) rotate(-90) scale(10.4 10.9181)">
<stop stop-color="white"/>
<stop offset="1" stop-color="white" stop-opacity="0.8"/>
</radialGradient>
<clipPath id="clip0_3926_4847">
<rect x="0.5" width="32" height="32" rx="8" fill="white"/>
</clipPath>
<clipPath id="clip1_3926_4847">
<rect width="17.3333" height="16.3137" fill="white" transform="translate(8.2666 7.15283)"/>
</clipPath>
</defs>
</svg>