<svg xmlns="http://www.w3.org/2000/svg" viewBox="0 0 160 267.87">
    <defs>
        <style>
            .prefix__cls-1 {
                fill: #9ba1a5
            }
        </style>
    </defs>
    <g id="prefix__Calque_2" data-name="Calque 2">
        <g id="prefix__Calque_1-2" data-name="Calque 1">
            <path class="prefix__cls-1"
                d="M138.84 92.51h19.92A99.36 99.36 0 0066.25 0v19.92a79.5 79.5 0 0172.59 72.59z" />
            <path class="prefix__cls-1"
                d="M98.78 92.51h20.1a59.62 59.62 0 00-52.63-52.6V60a39.72 39.72 0 0132.53 32.51z" />
            <path
                d="M53 39.88A59.63 59.63 0 000 99.14c0 85.46 59.63 146.53 59.63 146.53s56.53-57.93 59.48-139.91H98.78A39.73 39.73 0 1153 60V39.88z"
                fill="#00aba8" />
            <path class="prefix__cls-1"
                d="M59.63 119a19.88 19.88 0 10-19.88-19.86A19.87 19.87 0 0059.63 119zM59.56 267.87c7.39 0 13.39-1.15 13.39-2.58s-6-2.59-13.39-2.59-13.39 1.16-13.39 2.59 6 2.58 13.39 2.58z" />
        </g>
    </g>
</svg>